<svg xmlns="http://www.w3.org/2000/svg" version="1.1" xmlns:xlink="http://www.w3.org/1999/xlink" width="512" height="512" x="0" y="0" viewBox="0 0 32 32" style="enable-background:new 0 0 512 512" xml:space="preserve" class=""><g><path stroke="#000" stroke-width="0.5" d="M29 6C23.44 6 18.67 3.21 16.83.45a1.03 1.03 0 0 0-1.66 0C13.33 3.21 8.56 6 3 6a1 1 0 0 0-1 1 35.686 35.686 0 0 0 3.28 15.22 6.905 6.905 0 0 1-2.42 1.04 1.184 1.184 0 0 0 .01 2.28c2.59.73 3.26 1.4 3.99 4a1.187 1.187 0 0 0 2.28 0 9.984 9.984 0 0 1 .44-1.31 16.054 16.054 0 0 0 6.1 3.72 1.049 1.049 0 0 0 .64 0C26.42 28.58 30 16.4 30 7a1 1 0 0 0-1-1zM8 26.88a5.305 5.305 0 0 0-2.47-2.48A5.264 5.264 0 0 0 8 21.93a5.24 5.24 0 0 0 2.47 2.47A5.378 5.378 0 0 0 8 26.88zm8 3.06a14.032 14.032 0 0 1-5.23-3.39 7.016 7.016 0 0 1 2.36-1.01 1.182 1.182 0 0 0 0-2.28c-2.59-.72-3.26-1.39-3.99-3.99a1.182 1.182 0 0 0-2.28 0c-.09.33-.18.62-.27.89A33.6 33.6 0 0 1 4.01 7.97 17.609 17.609 0 0 0 16 2.63a17.609 17.609 0 0 0 11.99 5.34C27.74 17.04 24 27.05 16 29.94z" fill="" opacity="1" data-original="#000000" class=""></path><path d="M15.51 8.17a1.2 1.2 0 0 0-1.15-.88h-.01a1.2 1.2 0 0 0-1.15.88c-.78 2.78-1.55 3.55-4.32 4.32a1.2 1.2 0 0 0 0 2.31c2.77.78 3.54 1.54 4.32 4.32a1.2 1.2 0 0 0 2.31 0c.78-2.78 1.54-3.54 4.32-4.32a1.2 1.2 0 0 0 0-2.31c-2.78-.77-3.54-1.54-4.32-4.32zm1.65 5.48a5.616 5.616 0 0 0-2.81 2.81 5.6 5.6 0 0 0-2.8-2.81 5.635 5.635 0 0 0 2.8-2.81 5.654 5.654 0 0 0 2.81 2.81z" fill="" opacity="1" data-original="#000000" class="" stroke="#000" stroke-width="0.5"></path></g></svg>