<svg xmlns="http://www.w3.org/2000/svg" xmlns:xlink="http://www.w3.org/1999/xlink" xmlns:svgjs="http://svgjs.com/svgjs" id="SvgjsSvg1050" version="1.1" viewBox="100.91 97.29 135.22 187.03"><defs id="SvgjsDefs1051"/><g id="SvgjsG1052"><svg xmlns="http://www.w3.org/2000/svg" viewBox="0 0 523.622 530.43" width="360" height="360"><g data-name="Layer 1"><g data-name="New Symbol 4"><path fill="none" stroke="#ccc" stroke-miterlimit="10" d="m203.771 296.551 45.938 121.626 47.54-184.555M248.012 329.147l1.697 89.03" class="colorStrokeccc svgStroke"/><path fill="#f3ce01" d="M344.186 191.454a42.844 42.844 0 1 0-85.04-10.527c-2.837 22.919 12.017 51.664 34.562 55.736l-4.858 6.434a1.387 1.387 0 0 0 .936 2.212l8.986 1.112a1.387 1.387 0 0 0 1.448-1.916l-3.143-7.425c22.857 1.548 44.272-22.708 47.109-45.626Z" class="colorff841f svgShape"/><path fill="#ffffff" d="M329.095 212.813a3.001 3.001 0 0 1-2.176-4.564 48.93 48.93 0 0 0 3.392-6.462 3 3 0 1 1 5.51 2.376 54.935 54.935 0 0 1-3.81 7.259 3.001 3.001 0 0 1-2.916 1.39Z" opacity=".34" class="colorfff svgShape"/><path fill="#ffffff" d="M335.884 194.595a3 3 0 0 1-2.609-3.346 31.97 31.97 0 0 0-10.814-28.098 3 3 0 0 1 3.934-4.53 37.962 37.962 0 0 1 12.835 33.365 3 3 0 0 1-3.346 2.609Z" opacity=".54" class="colorfff svgShape"/><path d="M292.553 278.08a42.844 42.844 0 0 0-85.689 0c0 23.093 18.273 49.796 41.148 51.067l-4.031 6.982a1.387 1.387 0 0 0 1.2 2.08h9.055a1.387 1.387 0 0 0 1.2-2.08l-4.03-6.982c22.874-1.271 41.147-27.974 41.147-51.067Z" style="mix-blend-mode:multiply" fill="#aeffd8" class="colorff4399 svgShape"/><path fill="#ffffff" d="M284.7 282.216a3 3 0 0 1-3-3 31.97 31.97 0 0 0-14.185-26.556 3 3 0 0 1 3.348-4.98 37.962 37.962 0 0 1 16.837 31.536 3 3 0 0 1-3 3Z" opacity=".35" class="colorfff svgShape"/><path d="M229.65 227.58a42.844 42.844 0 1 0-83.044 21.125c5.693 22.38 29.985 43.754 52.467 39.347l-2.186 7.76a1.387 1.387 0 0 0 1.677 1.72l8.775-2.232a1.387 1.387 0 0 0 .651-2.312l-5.628-5.772c21.855-6.872 32.98-37.255 27.288-59.636Z" style="mix-blend-mode:multiply" fill="#ff6699" class="color0dd6f7 svgShape"/><path fill="#ffffff" d="M223.059 233.525a3 3 0 0 1-3.647-2.168 31.97 31.97 0 0 0-20.294-22.24 3 3 0 0 1 2.017-5.65 37.962 37.962 0 0 1 24.092 26.411 3 3 0 0 1-2.168 3.647Z" opacity=".46" class="colorfff svgShape"/></g></g></svg></g></svg>