<svg xmlns="http://www.w3.org/2000/svg" version="1.1" xmlns:xlink="http://www.w3.org/1999/xlink" width="512" height="512" x="0" y="0" viewBox="0 0 512 512" style="enable-background:new 0 0 512 512" xml:space="preserve" class=""><g><path d="M426.184 260.529h-8.146c13.635-9.933 20.823-28.883 20.823-47.05 0-23.543-19.154-42.697-42.697-42.697s-42.726 19.154-42.726 42.697c0 18.167 7.193 37.117 20.837 47.05h-8.159c-3.473 0-6.902.339-10.25 1.012-12.396-16.536-32.893-27.375-56.055-27.375H283.49c6.73-4.381 12.672-10.456 17.536-18.102 8.654-13.602 13.617-31.479 13.617-49.048 0-32.328-26.301-58.628-58.628-58.628s-58.628 26.301-58.628 58.628c0 16.887 4.921 34.952 13.163 48.324 4.959 8.045 10.94 14.338 17.761 18.825h-16.12c-23.154 0-43.644 10.84-56.034 27.378a52.218 52.218 0 0 0-10.271-1.015h-8.146c13.635-9.933 20.823-28.883 20.823-47.05 0-23.543-19.154-42.697-42.697-42.697s-42.697 19.154-42.697 42.697c0 18.167 7.188 37.117 20.823 47.05h-8.174c-27.264 0-49.444 20.845-49.444 46.468v52.556a8 8 0 0 0 16 0v-52.556c0-16.8 15.003-30.468 33.444-30.468h60.068c.639 0 1.271.042 1.906.074a60.237 60.237 0 0 0-4.038 21.69v61.259a8 8 0 0 0 16 0v-61.259c0-8.261 2.281-16.041 6.293-22.841.232-.315.439-.652.625-1.005 9.047-14.49 26.055-24.281 45.519-24.281h87.622c19.49 0 36.519 9.806 45.565 24.315.179.336.376.658.597.959 4.018 6.803 6.303 14.587 6.303 22.853v61.259a8 8 0 0 0 16 0v-61.259c0-7.611-1.43-14.913-4.04-21.691.625-.032 1.249-.073 1.879-.073h60.068c18.441 0 33.444 13.668 33.444 30.468v52.556a8 8 0 0 0 16 0v-52.556c0-25.623-22.18-46.468-49.444-46.468zm-30.02-73.748c14.721 0 26.697 11.977 26.697 26.697 0 15.817-8.283 38.093-26.697 38.093s-26.726-22.275-26.726-38.093c0-14.721 11.989-26.697 26.726-26.697zm-182.778-19.765c0-23.505 19.123-42.628 42.628-42.628s42.628 19.123 42.628 42.628c0 22.915-11.573 59.269-42.628 59.269-13.221 0-23.935-6.507-31.845-19.34-6.752-10.955-10.784-25.881-10.784-39.929zm-97.521 19.765c14.721 0 26.697 11.977 26.697 26.697 0 15.817-8.283 38.093-26.697 38.093s-26.697-22.275-26.697-38.093c0-14.721 11.977-26.697 26.697-26.697zm-27.73-77.336-3.092 21.331a8 8 0 0 0 11.445 8.327l19.375-9.52 19.347 9.518a8 8 0 0 0 11.45-8.316l-3.069-21.339 15.036-15.492a8 8 0 0 0-4.381-13.455l-21.26-3.667-10.042-19.077a7.998 7.998 0 0 0-7.075-4.273h-.004a8.002 8.002 0 0 0-7.076 4.267L98.72 76.832l-21.266 3.667a8 8 0 0 0-4.376 13.46l15.056 15.488zm17.185-17.517a8.003 8.003 0 0 0 5.716-4.15l4.822-9.139 4.807 9.131a8.002 8.002 0 0 0 5.719 4.158l10.205 1.76-7.215 7.434a8 8 0 0 0-2.178 6.71l1.469 10.218-9.268-4.559a7.998 7.998 0 0 0-7.059-.002l-9.283 4.561 1.48-10.209a8.003 8.003 0 0 0-2.181-6.724l-7.225-7.432 10.19-1.757zm122.965-22.987-3.091 21.327a8 8 0 0 0 11.446 8.327l19.375-9.52 19.347 9.518a8.002 8.002 0 0 0 11.45-8.317l-3.068-21.335 15.032-15.463a8 8 0 0 0-4.376-13.46l-21.261-3.667-10.042-19.077a7.998 7.998 0 0 0-7.075-4.273h-.004a8.002 8.002 0 0 0-7.076 4.267l-10.069 19.083-21.265 3.667a8.001 8.001 0 0 0-4.372 13.464l15.051 15.459zm17.185-17.493a8.003 8.003 0 0 0 5.716-4.15l4.822-9.139 4.807 9.132a7.998 7.998 0 0 0 5.719 4.157l10.19 1.757-7.197 7.404a8 8 0 0 0-2.182 6.715l1.469 10.217-9.268-4.559a7.99 7.99 0 0 0-7.059-.002l-9.282 4.561 1.48-10.208a8.003 8.003 0 0 0-2.186-6.729l-7.207-7.401 10.176-1.755zm122.965 55.025-3.092 21.355a8.002 8.002 0 0 0 11.446 8.327l19.375-9.52 19.347 9.518a7.998 7.998 0 0 0 11.449-8.316l-3.069-21.364 15.032-15.463a8 8 0 0 0-4.376-13.46l-21.26-3.667-10.042-19.077a7.998 7.998 0 0 0-7.075-4.273h-.004a8.002 8.002 0 0 0-7.076 4.267l-10.069 19.083-21.266 3.668a8.001 8.001 0 0 0-4.372 13.465l15.052 15.458zM385.62 88.98a8.003 8.003 0 0 0 5.716-4.15l4.822-9.139 4.807 9.131a8.002 8.002 0 0 0 5.719 4.158l10.19 1.758-7.197 7.403a7.998 7.998 0 0 0-2.182 6.714l1.472 10.248-9.27-4.56a8.002 8.002 0 0 0-7.059-.002l-9.285 4.562 1.482-10.239a8.004 8.004 0 0 0-2.186-6.728l-7.207-7.401 10.177-1.755zM256.016 355.635c-26.669 0-48.367 21.697-48.367 48.367s21.697 48.367 48.367 48.367 48.367-21.697 48.367-48.367-21.697-48.367-48.367-48.367zm0 80.734c-17.847 0-32.367-14.52-32.367-32.367s14.52-32.367 32.367-32.367 32.367 14.52 32.367 32.367-14.52 32.367-32.367 32.367zm90.348-50.83-14.615-6.738-4.356-10.544 5.555-15.098a8.001 8.001 0 0 0-1.851-8.419l-10.753-10.753v-25.431a8 8 0 0 0-16 0v19.44l-12.578 4.628-10.577-4.381-6.739-14.594a8 8 0 0 0-7.263-4.646h-22.366a7.999 7.999 0 0 0-7.263 4.646l-6.74 14.596-10.551 4.377-12.604-4.637v-19.43a8 8 0 0 0-16 0v25.459l-10.725 10.725a8 8 0 0 0-1.851 8.419l5.552 15.092-4.377 10.55-14.596 6.74a8 8 0 0 0-4.646 7.263v22.395a7.999 7.999 0 0 0 4.646 7.263l14.596 6.74 4.377 10.55-5.552 15.092a8.001 8.001 0 0 0 1.851 8.419l15.818 15.818a7.996 7.996 0 0 0 8.419 1.851l15.092-5.552 10.551 4.377 6.74 14.596a8 8 0 0 0 7.263 4.646h22.366a7.999 7.999 0 0 0 7.263-4.646l6.739-14.594 10.577-4.381 15.094 5.553a7.998 7.998 0 0 0 8.419-1.851l15.818-15.818a8 8 0 0 0 1.851-8.419l-5.555-15.098 4.356-10.544 14.615-6.738a8 8 0 0 0 4.651-7.265v-22.395a8 8 0 0 0-4.651-7.265zm-11.349 24.539-12.812 5.906a7.994 7.994 0 0 0-4.044 4.21l-6.747 16.328a7.996 7.996 0 0 0-.114 5.817l4.867 13.228-8.583 8.583-13.228-4.867a8 8 0 0 0-5.824.117l-16.356 6.775a8.005 8.005 0 0 0-4.202 4.037L262.067 483h-12.13l-5.905-12.788a8 8 0 0 0-4.197-4.035l-16.328-6.775a8 8 0 0 0-5.828-.119l-13.228 4.867-8.583-8.583 4.867-13.228a7.995 7.995 0 0 0-.119-5.828l-6.775-16.328a8.003 8.003 0 0 0-4.035-4.197l-12.788-5.905v-12.16l12.788-5.905a8.003 8.003 0 0 0 4.035-4.197l6.775-16.328a8.005 8.005 0 0 0 .119-5.828l-4.867-13.228 8.583-8.583 13.228 4.867a8 8 0 0 0 5.828-.119l16.328-6.775a8 8 0 0 0 4.197-4.035l5.905-12.788h12.13l5.905 12.788a7.998 7.998 0 0 0 4.202 4.037l16.356 6.775a7.994 7.994 0 0 0 5.824.117l13.228-4.867 8.583 8.583-4.867 13.228a8 8 0 0 0 .114 5.817l6.747 16.328a8.001 8.001 0 0 0 4.044 4.21l12.812 5.906v12.153zm-60.205-21.63a8 8 0 0 1 .531 11.301l-17.547 19.276a7.995 7.995 0 0 1-11.457.384l-9.298-8.929a8 8 0 0 1 11.083-11.541l3.372 3.238 12.016-13.2a8 8 0 0 1 11.301-.531z" fill="#000000" opacity="1" data-original="#000000" class=""></path></g></svg>