<svg xmlns="http://www.w3.org/2000/svg" version="1.1" xmlns:xlink="http://www.w3.org/1999/xlink" width="512" height="512" x="0" y="0" viewBox="0 0 32 32" style="enable-background:new 0 0 512 512" xml:space="preserve" class=""><g><circle cx="19.43" cy="5.714" r="5.714" fill="" opacity="1" data-original="#000000" class=""></circle><path d="M8.8 15.211 2.288 17.27v8.217a5.676 5.676 0 0 0 .571 2.685c1.429 2.835 5.029 3.646 5.943 3.818.903-.172 4.503-.983 5.931-3.818a5.628 5.628 0 0 0 .572-2.651v-8.251zm4.79 6.355L9.132 26.01a1.118 1.118 0 0 1-1.611 0l-2.366-2.354a1.138 1.138 0 0 1 0-1.611 1.152 1.152 0 0 1 1.623 0l1.554 1.543 3.635-3.635a1.152 1.152 0 0 1 1.622 0 1.138 1.138 0 0 1 .001 1.612z" fill="" opacity="1" data-original="#000000" class=""></path><path d="M29.715 32h-3.428V21.714a1.143 1.143 0 1 0-2.286 0V32h-9.143v-.36a8.049 8.049 0 0 0 1.915-2.448 7.741 7.741 0 0 0 .817-3.702v-9.061a1.14 1.14 0 0 0-.798-1.09l-2.257-.713a9.454 9.454 0 0 1 4.037-.912h1.714a9.44 9.44 0 0 1 9.429 9.429z" fill="" opacity="1" data-original="#000000" class=""></path></g></svg>