<svg xmlns="http://www.w3.org/2000/svg" version="1.1" xmlns:xlink="http://www.w3.org/1999/xlink" width="512" height="512" x="0" y="0" viewBox="0 0 32 32" style="enable-background:new 0 0 512 512" xml:space="preserve" class=""><g><circle cx="16" cy="11" r="3" fill="" opacity="1" data-original="#000000" class=""></circle><path stroke="#000" stroke-width="0.5" d="M16 7c.347 0 .678.058 1 .142V6c0-1.103.897-2 2-2s2 .897 2 2v8.142c.322-.084.653-.142 1-.142s.678.058 1 .142V6c0-2.206-1.794-4-4-4s-4 1.794-4 4v1.142A3.954 3.954 0 0 1 16 7z" fill="" opacity="1" data-original="#000000" class=""></path><circle cx="22" cy="18" r="3" fill="" opacity="1" data-original="#000000" class=""></circle><circle cx="27" cy="5" r="3" fill="" opacity="1" data-original="#000000" class=""></circle><path stroke="#000" stroke-width="0.5" d="M16 15c-.347 0-.678-.058-1-.142V26c0 1.103-.897 2-2 2s-2-.897-2-2v-4.142c-.322.084-.653.142-1 .142s-.678-.058-1-.142V26c0 2.206 1.794 4 4 4s4-1.794 4-4V14.858A3.954 3.954 0 0 1 16 15zM27 9c-.347 0-.678-.058-1-.142V26.5c0 .827-.673 1.5-1.5 1.5s-1.5-.673-1.5-1.5v-4.642c-.322.084-.653.142-1 .142s-.678-.058-1-.142V26.5c0 1.93 1.57 3.5 3.5 3.5s3.5-1.57 3.5-3.5V8.858A3.954 3.954 0 0 1 27 9z" fill="" opacity="1" data-original="#000000" class=""></path><circle cx="10" cy="18" r="3" fill="" opacity="1" data-original="#000000" class=""></circle><path stroke="#000" stroke-width="0.5" d="M5 23c.347 0 .678.058 1 .142V5.5C6 4.673 6.673 4 7.5 4S9 4.673 9 5.5v8.642c.322-.084.653-.142 1-.142s.678.058 1 .142V5.5C11 3.57 9.43 2 7.5 2S4 3.57 4 5.5v17.642A3.954 3.954 0 0 1 5 23z" fill="" opacity="1" data-original="#000000" class=""></path><circle cx="5" cy="27" r="3" fill="" opacity="1" data-original="#000000" class=""></circle></g></svg>